<?xml version="1.0" encoding="utf-8"?>
<!-- Generator: Adobe Illustrator 28.2.0, SVG Export Plug-In . SVG Version: 6.00 Build 0)  -->
<svg version="1.1" id="Layer_1" xmlns="http://www.w3.org/2000/svg" xmlns:xlink="http://www.w3.org/1999/xlink" x="0px" y="0px"
	 viewBox="0 0 800 800" style="enable-background:new 0 0 800 800;" xml:space="preserve">
<style type="text/css">
	.st0{fill:url(#SVGID_1_);}
	.st1{fill:#FFFFFF;}
	.st2{fill:url(#SVGID_00000130637655975908067180000008841281424885135255_);}
</style>
<linearGradient id="SVGID_1_" gradientUnits="userSpaceOnUse" x1="590.8276" y1="542.5057" x2="209.1724" y2="160.8505">
	<stop  offset="0" style="stop-color:#005555"/>
	<stop  offset="0.5862" style="stop-color:#069A8E"/>
</linearGradient>
<path class="st0" d="M400,66.7c-128.9,0-233.3,104.5-233.3,233.3c0,128.9,233.3,433.3,233.3,433.3S633.3,428.9,633.3,300
	C633.3,171.2,528.9,66.7,400,66.7L400,66.7z M400,416.7c-64.4,0-116.7-52.2-116.7-116.7c0-64.4,52.2-116.7,116.7-116.7c0,0,0,0,0,0
	c64.4,0,116.7,52.2,116.7,116.7C516.6,364.4,464.4,416.7,400,416.7z"/>
<circle class="st1" cx="400.5" cy="300.5" r="117.5"/>
<linearGradient id="SVGID_00000043456677065099150930000000678006776434094261_" gradientUnits="userSpaceOnUse" x1="326.5" y1="301.25" x2="473" y2="301.25">
	<stop  offset="0" style="stop-color:#005555"/>
	<stop  offset="0.5862" style="stop-color:#069A8E"/>
</linearGradient>
<circle style="fill:url(#SVGID_00000043456677065099150930000000678006776434094261_);" cx="399.8" cy="301.2" r="73.2"/>
</svg>
